<svg width="217" height="27" viewBox="0 0 217 27" fill="none" xmlns="http://www.w3.org/2000/svg">
<path d="M17.88 23.76L2.98023e-08 15.52V12.84L17.88 4.6V7.68L3.44 14.16L17.88 20.68V23.76ZM27.475 26.4C26.4083 26.4 25.4083 26.3067 24.475 26.12C23.5683 25.96 22.7683 25.7467 22.075 25.48V22.68C22.715 22.9467 23.4883 23.1733 24.395 23.36C25.3017 23.5467 26.195 23.64 27.075 23.64C28.9683 23.64 30.275 23.24 30.995 22.44C31.715 21.64 32.075 20.3867 32.075 18.68V0.239998H35.355V18.92C35.355 21.2667 34.7017 23.1067 33.395 24.44C32.115 25.7467 30.1417 26.4 27.475 26.4ZM50.4253 26.4C47.1186 26.4 44.7053 25.56 43.1853 23.88C41.692 22.1733 40.9453 19.72 40.9453 16.52C40.9453 13.3467 41.7053 10.9067 43.2253 9.2C44.7453 7.49333 47.1453 6.64 50.4253 6.64C53.7053 6.64 56.1053 7.49333 57.6253 9.2C59.1453 10.9067 59.9053 13.3467 59.9053 16.52C59.9053 19.72 59.1586 22.1733 57.6653 23.88C56.172 25.56 53.7586 26.4 50.4253 26.4ZM50.4253 23.6C52.692 23.6 54.292 23.04 55.2253 21.92C56.1586 20.7733 56.6253 18.9733 56.6253 16.52C56.6253 14.0667 56.1453 12.28 55.1853 11.16C54.252 10.0133 52.6653 9.44 50.4253 9.44C48.1853 9.44 46.5853 10.0133 45.6253 11.16C44.692 12.28 44.2253 14.0667 44.2253 16.52C44.2253 18.9733 44.692 20.7733 45.6253 21.92C46.5586 23.04 48.1586 23.6 50.4253 23.6ZM65.7141 26V7.04H68.6741L68.8741 9.2C69.7807 8.45333 70.8341 7.84 72.0341 7.36C73.2607 6.88 74.6607 6.64 76.2341 6.64C78.6341 6.64 80.3807 7.2 81.4741 8.32C82.5674 9.44 83.1141 11.2 83.1141 13.6V26H79.8341V13.72C79.8341 12.0667 79.5007 10.92 78.8341 10.28C78.1674 9.61333 76.8874 9.28 74.9941 9.28C73.8207 9.28 72.7141 9.49333 71.6741 9.92C70.6341 10.3467 69.7407 10.9333 68.9941 11.68V26H65.7141ZM98.2216 26.4C94.8349 26.4 92.3016 25.5867 90.6216 23.96C88.9416 22.3333 88.1016 19.8267 88.1016 16.44C88.1016 13.4 88.8216 11.0133 90.2616 9.28C91.7282 7.52 94.0349 6.64 97.1816 6.64C99.0482 6.64 100.582 6.98667 101.782 7.68C103.008 8.34667 103.915 9.28 104.502 10.48C105.115 11.6533 105.422 12.9867 105.422 14.48V18.04H91.3816C91.4882 19.48 91.7949 20.6133 92.3016 21.44C92.8349 22.2667 93.6216 22.8667 94.6616 23.24C95.7282 23.5867 97.1282 23.76 98.8616 23.76C100.808 23.76 102.595 23.4267 104.222 22.76V25.32C103.395 25.6667 102.462 25.9333 101.422 26.12C100.408 26.3067 99.3416 26.4 98.2216 26.4ZM91.3816 15.68H102.502V14.12C102.502 12.5733 102.088 11.3867 101.262 10.56C100.462 9.70667 99.1282 9.28 97.2616 9.28C94.9949 9.28 93.4482 9.81333 92.6216 10.88C91.7949 11.9467 91.3816 13.5467 91.3816 15.68ZM198.297 23.76V20.68L212.777 14.16L198.297 7.68V4.6L216.177 12.84V15.52L198.297 23.76Z" fill="white"/>
<path d="M121.448 26V0.239998H131.528C135.262 0.239998 137.995 1.25333 139.728 3.28C141.462 5.30667 142.328 8.64 142.328 13.28C142.328 17.68 141.475 20.9067 139.768 22.96C138.088 24.9867 135.342 26 131.528 26H121.448ZM124.728 23.44H130.928C132.742 23.44 134.248 23.1733 135.448 22.64C136.648 22.08 137.542 21.0667 138.128 19.6C138.742 18.1333 139.048 16.0267 139.048 13.28C139.048 10.56 138.768 8.44 138.208 6.92C137.675 5.4 136.808 4.34666 135.608 3.76C134.435 3.14666 132.875 2.84 130.928 2.84H124.728V23.44ZM148.113 26V0.239998H165.512V2.84H151.393V11.84H164.073V14.4H151.393V23.44H165.512V26H148.113ZM179.714 26L169.914 0.239998H173.314L181.594 22.68L189.914 0.239998H193.314L183.554 26H179.714Z" fill="#20BBC5"/>
</svg>
